<svg width="58" height="58" viewBox="0 0 58 58" fill="none" xmlns="http://www.w3.org/2000/svg">
<rect width="58" height="58" rx="29" fill="#EFF1F4"/>
<g clip-path="url(#clip0_429_28)">
<path d="M37.6668 22.3333H32.3335V23.6666H37.6668V37.6666H32.3335V38.9999H39.0002V23.6666C39.0002 23.313 38.8597 22.9738 38.6096 22.7238C38.3596 22.4737 38.0205 22.3333 37.6668 22.3333Z" fill="#2A7280"/>
<path d="M30.2532 19H21.0798C20.705 19 20.3455 19.1489 20.0805 19.414C19.8154 19.679 19.6665 20.0385 19.6665 20.4133V39H31.6665V20.4133C31.6665 20.0385 31.5176 19.679 31.2525 19.414C30.9875 19.1489 30.628 19 30.2532 19ZM30.3332 37.6667H28.3332V35.6667H22.9998V37.6667H20.9998V20.4133C20.9998 20.4028 21.0019 20.3924 21.0059 20.3827C21.0099 20.373 21.0158 20.3642 21.0233 20.3568C21.0307 20.3493 21.0395 20.3434 21.0492 20.3394C21.0589 20.3354 21.0693 20.3333 21.0798 20.3333H30.2532C30.2637 20.3333 30.2741 20.3354 30.2838 20.3394C30.2935 20.3434 30.3023 20.3493 30.3097 20.3568C30.3172 20.3642 30.3231 20.373 30.3271 20.3827C30.3311 20.3924 30.3332 20.4028 30.3332 20.4133V37.6667Z" fill="#2A7280"/>
<path d="M22.3335 22.3333H23.6668V23.6666H22.3335V22.3333Z" fill="#2A7280"/>
<path d="M25 22.3333H26.3333V23.6666H25V22.3333Z" fill="#2A7280"/>
<path d="M27.6665 22.3333H28.9998V23.6666H27.6665V22.3333Z" fill="#2A7280"/>
<path d="M22.3335 25.6667H23.6668V27.0001H22.3335V25.6667Z" fill="#2A7280"/>
<path d="M25 25.6667H26.3333V27.0001H25V25.6667Z" fill="#2A7280"/>
<path d="M27.6665 25.6667H28.9998V27.0001H27.6665V25.6667Z" fill="#2A7280"/>
<path d="M22.3335 29H23.6668V30.3333H22.3335V29Z" fill="#2A7280"/>
<path d="M25 29H26.3333V30.3333H25V29Z" fill="#2A7280"/>
<path d="M27.6665 29H28.9998V30.3333H27.6665V29Z" fill="#2A7280"/>
<path d="M22.3335 32.3333H23.6668V33.6666H22.3335V32.3333Z" fill="#2A7280"/>
<path d="M25 32.3333H26.3333V33.6666H25V32.3333Z" fill="#2A7280"/>
<path d="M27.6665 32.3333H28.9998V33.6666H27.6665V32.3333Z" fill="#2A7280"/>
<path d="M32.3335 25.6667H33.6668V27.0001H32.3335V25.6667Z" fill="#2A7280"/>
<path d="M35 25.6667H36.3333V27.0001H35V25.6667Z" fill="#2A7280"/>
<path d="M32.3335 29H33.6668V30.3333H32.3335V29Z" fill="#2A7280"/>
<path d="M35 29H36.3333V30.3333H35V29Z" fill="#2A7280"/>
<path d="M32.3335 32.3333H33.6668V33.6666H32.3335V32.3333Z" fill="#2A7280"/>
<path d="M35 32.3333H36.3333V33.6666H35V32.3333Z" fill="#2A7280"/>
</g>
<defs>
<clipPath id="clip0_429_28">
<rect width="24" height="24" fill="white" transform="translate(17 17)"/>
</clipPath>
</defs>
</svg>
