<svg width="58" height="58" viewBox="0 0 58 58" fill="none" xmlns="http://www.w3.org/2000/svg">
<rect width="58" height="58" rx="29" fill="#DEE1E3"/>
<g clip-path="url(#clip0_46_73)">
<path d="M38.0812 24.775C37.8924 24.5232 37.596 24.375 37.2812 24.375H35.5C34.9477 24.375 34.5 23.9273 34.5 23.375V21C34.5 20.4477 34.0523 20 33.5 20H18C17.4477 20 17 20.4477 17 21V33.2188C17 33.771 17.4477 34.2188 18 34.2188H18.1875C18.7398 34.2188 19.1722 34.6767 19.3372 35.2037C19.7544 36.5363 20.9965 37.5 22.4688 37.5C23.941 37.5 25.1831 36.5363 25.6003 35.2037C25.7653 34.6767 26.1977 34.2188 26.75 34.2188H31.3125C31.8648 34.2188 32.2972 34.6767 32.4622 35.2037C32.8794 36.5363 34.1215 37.5 35.5938 37.5C37.066 37.5 38.3081 36.5363 38.7253 35.2037C38.8903 34.6767 39.3227 34.2188 39.875 34.2188H40.0625C40.6148 34.2188 41.0625 33.771 41.0625 33.2188V29.0833C41.0625 28.867 40.9923 28.6564 40.8625 28.4833L38.0812 24.775ZM22.4688 35.8594C21.5609 35.8594 20.8281 35.1266 20.8281 34.2188C20.8281 33.3109 21.5609 32.5781 22.4688 32.5781C23.3766 32.5781 24.1094 33.3109 24.1094 34.2188C24.1094 35.1266 23.3766 35.8594 22.4688 35.8594ZM32.3125 22.7344C32.3125 23.0364 32.0677 23.2812 31.7656 23.2812H31.125C30.5727 23.2812 30.125 23.729 30.125 24.2812V29.9375C30.125 30.4898 29.6773 30.9375 29.125 30.9375H28.9375C28.3852 30.9375 27.9375 30.4898 27.9375 29.9375V24.2812C27.9375 23.729 27.4898 23.2812 26.9375 23.2812H26.75C26.1977 23.2812 25.75 23.729 25.75 24.2812V29.9375C25.75 30.4898 25.3023 30.9375 24.75 30.9375H24.5625C24.0102 30.9375 23.5625 30.4898 23.5625 29.9375V24.2812C23.5625 23.729 23.1148 23.2812 22.5625 23.2812H22.375C21.8227 23.2812 21.375 23.729 21.375 24.2812V29.9375C21.375 30.4898 20.9273 30.9375 20.375 30.9375H20.1875C19.6352 30.9375 19.1875 30.4898 19.1875 29.9375V23.1875C19.1875 22.6352 19.6352 22.1875 20.1875 22.1875H31.7656C32.0677 22.1875 32.3125 22.4323 32.3125 22.7344ZM35.5938 35.8594C34.6859 35.8594 33.9531 35.1266 33.9531 34.2188C33.9531 33.3109 34.6859 32.5781 35.5938 32.5781C36.5016 32.5781 37.2344 33.3109 37.2344 34.2188C37.2344 35.1266 36.5016 35.8594 35.5938 35.8594ZM35.5 28.75C34.9477 28.75 34.5 28.3023 34.5 27.75V27.0156C34.5 26.4633 34.9477 26.0156 35.5 26.0156H36.7477C37.0549 26.0156 37.3451 26.1569 37.5347 26.3986L38.1104 27.133C38.6249 27.7893 38.1574 28.75 37.3234 28.75H35.5Z" fill="#2A7280"/>
</g>
<defs>
<clipPath id="clip0_46_73">
<rect width="24" height="24" fill="white" transform="translate(17 17)"/>
</clipPath>
</defs>
</svg>
