<svg width="58" height="58" viewBox="0 0 58 58" fill="none" xmlns="http://www.w3.org/2000/svg">
<rect width="58" height="58" rx="29" fill="#EFF1F4"/>
<path fill-rule="evenodd" clip-rule="evenodd" d="M27.9284 17.528H22.7993C22.3123 17.5278 21.8353 17.666 21.4238 17.9264C21.0123 18.1868 20.6831 18.5587 20.4747 18.9988L17.9393 24.3474C17.8738 24.4857 17.8466 24.639 17.8604 24.7914L17.857 24.8771V37.16C17.8579 37.8635 18.1378 38.5379 18.6353 39.0354C19.1327 39.5329 19.8072 39.8128 20.5107 39.8137H37.489C38.1925 39.8128 38.867 39.5329 39.3645 39.0354C39.8619 38.5379 40.1418 37.8635 40.1427 37.16V24.8771L40.1393 24.7914C40.1531 24.639 40.1259 24.4857 40.0604 24.3474L37.5233 18.9988C37.315 18.559 36.9861 18.1872 36.5749 17.9269C36.1638 17.6665 35.6871 17.5282 35.2004 17.528H30.0713V25.5714H37.9999V37.16C37.999 37.2952 37.9449 37.4246 37.8492 37.5202C37.7536 37.6158 37.6242 37.6699 37.489 37.6708H20.5107C20.3755 37.6699 20.2461 37.6158 20.1505 37.5202C20.0549 37.4246 20.0008 37.2952 19.9999 37.16V25.5714H27.9284V17.528ZM28.9999 27.4502C29.5913 27.4502 30.0713 27.9302 30.0713 28.5217V31.5217H31.9999C32.2118 31.5216 32.419 31.5844 32.5952 31.7022C32.7715 31.8199 32.9088 31.9872 32.9899 32.1831C33.071 32.3789 33.0923 32.5943 33.0509 32.8022C33.0095 33.01 32.9075 33.201 32.7576 33.3508L29.7576 36.3508C29.6583 36.4507 29.5403 36.5298 29.4102 36.5837C29.2801 36.6375 29.1406 36.665 28.9999 36.6645C28.855 36.6651 28.7115 36.6361 28.5783 36.5792C28.445 36.5223 28.3248 36.4387 28.225 36.3337L25.2421 33.3508C25.0917 33.2011 24.9891 33.01 24.9474 32.8018C24.9057 32.5937 24.9268 32.3778 25.0079 32.1817C25.0891 31.9855 25.2268 31.8179 25.4034 31.7001C25.58 31.5823 25.7876 31.5196 25.9999 31.52H27.9284V28.52C27.9284 27.9285 28.4084 27.4485 28.9999 27.4485" fill="#2A7280"/>
</svg>
