<svg width="58" height="58" viewBox="0 0 58 58" fill="none" xmlns="http://www.w3.org/2000/svg">
<rect width="58" height="58" rx="29" fill="white"/>
<g clip-path="url(#clip0_46_79)">
<path fill-rule="evenodd" clip-rule="evenodd" d="M23.3935 17.981C24.3105 17.873 25.7515 17.773 28 17.75V25.3135C24.9945 25.3285 22.7595 25.41 21.29 25.486C20.8622 25.5068 20.4432 25.6147 20.0585 25.803C19.8375 26.5495 19.75 27.3555 19.75 28.197V32.659C19.75 34.4055 19.8365 35.772 19.934 36.761C20.0055 37.482 20.5865 38.036 21.3835 38.077C22.982 38.1595 25.5185 38.2495 29 38.2495C32.481 38.2495 35.018 38.1595 36.6165 38.077C37.4135 38.0355 37.9945 37.482 38.066 36.761C38.164 35.772 38.25 34.406 38.25 32.659V28.197C38.25 27.3555 38.1625 26.5495 37.9415 25.8025C37.5571 25.6145 37.1384 25.5068 36.711 25.486C35.241 25.41 33.006 25.3285 30 25.3135V17.75C32.2485 17.773 33.6895 17.873 34.6065 17.981C35.8755 18.13 36.834 18.9225 37.399 19.9275C38.026 21.042 38.958 22.8125 39.6595 24.6445C40.106 25.8105 40.2495 27.0305 40.2495 28.197L40.25 32.659C40.25 34.4715 40.1605 35.904 40.056 36.958C39.88 38.7355 38.43 39.9855 36.72 40.074C35.087 40.159 32.5155 40.2495 29 40.2495C25.4845 40.2495 22.9135 40.159 21.28 40.0745C19.57 39.9855 18.12 38.7355 17.944 36.958C17.8395 35.904 17.75 34.4715 17.75 32.659V28.197C17.75 27.0305 17.894 25.8105 18.34 24.6445C19.042 22.8125 19.974 21.042 20.601 19.9275C21.166 18.9225 22.1245 18.13 23.3935 17.981ZM28.0865 27.9375C28.6405 27.521 29.3615 27.521 29.915 27.9375C30.3465 28.262 30.9535 28.8005 31.7365 29.687C32.1461 30.1481 32.5421 30.6211 32.924 31.1055C33.2405 31.51 33.316 31.998 33.128 32.412C32.94 32.8255 32.523 33.0905 32.012 33.1205C31.739 33.1365 31.4225 33.151 31.056 33.163C31.0256 33.8692 30.9911 34.5752 30.9525 35.281C30.9185 35.91 30.504 36.519 29.8075 36.627C29.5725 36.6635 29.299 36.6905 29.0005 36.6905C28.7025 36.6905 28.429 36.6635 28.1945 36.627C27.4985 36.519 27.0845 35.9105 27.05 35.2825C27.02 34.7325 26.98 33.9605 26.946 33.1625C26.6268 33.1527 26.3078 33.1387 25.989 33.1205C25.4775 33.0905 25.0605 32.8255 24.873 32.412C24.6855 31.9985 24.7605 31.51 25.077 31.106C25.459 30.6215 25.8552 30.1483 26.265 29.687C27.048 28.8005 27.655 28.2625 28.0865 27.9375Z" fill="#2A7280"/>
</g>
<defs>
<clipPath id="clip0_46_79">
<rect width="24" height="24" fill="white" transform="translate(17 17)"/>
</clipPath>
</defs>
</svg>
