<svg width="58" height="58" viewBox="0 0 58 58" fill="none" xmlns="http://www.w3.org/2000/svg">
<rect width="58" height="58" rx="29" fill="#EFF1F4"/>
<g clip-path="url(#clip0_429_14)">
<path d="M20.6455 29.09C20.7475 30.355 21.7465 31.285 23.0145 31.356C24.3315 31.4295 26.2975 31.5 29 31.5C31.7025 31.5 33.6685 31.43 34.9855 31.356C36.2535 31.285 37.2525 30.3555 37.3545 29.09C37.4335 28.106 37.5 26.756 37.5 25C37.5 23.244 37.4335 21.8945 37.3545 20.91C37.2525 19.645 36.2535 18.715 34.9855 18.644C33.6685 18.5705 31.7025 18.5 29 18.5C26.2975 18.5 24.3315 18.57 23.0145 18.644C21.7465 18.715 20.7475 19.645 20.645 20.9105C20.5665 21.8945 20.5 23.244 20.5 25C20.5 26.756 20.5665 28.106 20.6455 29.09Z" stroke="#2A7280" stroke-width="1.5" stroke-linecap="round" stroke-linejoin="round"/>
<path d="M18.501 35.7024C18.5225 37.9489 20.4075 39.3874 22.6535 39.4374C24.218 39.4719 26.3145 39.4999 29 39.4999C31.6855 39.4999 33.782 39.4719 35.3465 39.4374C37.5925 39.3874 39.4775 37.9489 39.499 35.7024C39.5002 35.5674 39.5002 35.4324 39.499 35.2974C39.4775 33.0509 37.5925 31.6124 35.3465 31.5624C33.2313 31.5184 31.1156 31.4976 29 31.4999C26.315 31.4999 24.218 31.5279 22.6535 31.5624C20.4075 31.6124 18.5225 33.0509 18.501 35.2974C18.4997 35.4324 18.4997 35.5674 18.501 35.7024Z" stroke="#2A7280" stroke-width="1.5" stroke-linecap="round" stroke-linejoin="round"/>
<path d="M31.479 18.523C31.446 19.7406 31.3893 20.9575 31.309 22.173C31.3033 22.2587 31.2753 22.3415 31.2278 22.4131C31.1804 22.4847 31.115 22.5426 31.0382 22.5812C30.9614 22.6198 30.8759 22.6377 30.7901 22.6331C30.7043 22.6285 30.6212 22.6016 30.549 22.555L29.134 21.6565C29.0939 21.6309 29.0473 21.6174 28.9998 21.6174C28.9522 21.6174 28.9056 21.6309 28.8655 21.6565L27.4505 22.555C27.3783 22.6014 27.2952 22.6283 27.2094 22.6328C27.1236 22.6373 27.0382 22.6194 26.9615 22.5807C26.8847 22.5421 26.8194 22.4841 26.772 22.4125C26.7246 22.3409 26.6967 22.2582 26.691 22.1725C26.636 21.339 26.5575 19.9725 26.5205 18.5225M34.5 28.5H30.5M34.5 26H32M24.5 35.5C24.5 35.8978 24.342 36.2793 24.0607 36.5606C23.7794 36.8419 23.3978 37 23 37C22.6022 37 22.2206 36.8419 21.9393 36.5606C21.658 36.2793 21.5 35.8978 21.5 35.5C21.5 35.1021 21.658 34.7206 21.9393 34.4393C22.2206 34.158 22.6022 34 23 34C23.3978 34 23.7794 34.158 24.0607 34.4393C24.342 34.7206 24.5 35.1021 24.5 35.5ZM30.5 35.5C30.5 35.8978 30.342 36.2793 30.0607 36.5606C29.7794 36.8419 29.3978 37 29 37C28.6022 37 28.2206 36.8419 27.9393 36.5606C27.658 36.2793 27.5 35.8978 27.5 35.5C27.5 35.1021 27.658 34.7206 27.9393 34.4393C28.2206 34.158 28.6022 34 29 34C29.3978 34 29.7794 34.158 30.0607 34.4393C30.342 34.7206 30.5 35.1021 30.5 35.5ZM36.5 35.5C36.5 35.8978 36.342 36.2793 36.0607 36.5606C35.7794 36.8419 35.3978 37 35 37C34.6022 37 34.2206 36.8419 33.9393 36.5606C33.658 36.2793 33.5 35.8978 33.5 35.5C33.5 35.1021 33.658 34.7206 33.9393 34.4393C34.2206 34.158 34.6022 34 35 34C35.3978 34 35.7794 34.158 36.0607 34.4393C36.342 34.7206 36.5 35.1021 36.5 35.5Z" stroke="#2A7280" stroke-width="1.5" stroke-linecap="round" stroke-linejoin="round"/>
</g>
<defs>
<clipPath id="clip0_429_14">
<rect width="24" height="24" fill="white" transform="translate(17 17)"/>
</clipPath>
</defs>
</svg>
