<svg width="58" height="58" viewBox="0 0 58 58" fill="none" xmlns="http://www.w3.org/2000/svg">
<rect width="58" height="58" rx="29" fill="#DEE1E3"/>
<path d="M36.5 21.5C35.6828 22.2817 34.7109 22.8836 33.647 23.267C32.525 23.465 29.42 22.025 27.89 23.495C27.635 23.75 27.32 24.005 26.99 24.26C26.27 23.945 25.16 23.465 24.35 23C23.54 22.535 21.5 21.5 21.5 21.5L17 26.75C17 26.75 18.11 28.25 18.8 29.24C19.25 29.9 19.805 30.905 20.165 31.58L19.655 32.18C19.5337 32.4228 19.4903 32.6971 19.5305 32.9655C19.5708 33.234 19.6928 33.4834 19.88 33.68C20.0966 33.8433 20.3607 33.9314 20.632 33.9309C20.9033 33.9304 21.167 33.8412 21.383 33.677C21.3028 33.7709 21.2421 33.8798 21.2045 33.9974C21.1668 34.115 21.153 34.2389 21.1637 34.362C21.1745 34.485 21.2096 34.6046 21.2671 34.7139C21.3246 34.8232 21.4032 34.9199 21.4985 34.9985C21.7279 35.1314 21.9883 35.2011 22.2534 35.2006C22.5185 35.2 22.7787 35.1293 23.0075 34.9955C22.8361 35.2091 22.7423 35.4746 22.7415 35.7485C22.7407 36.0223 22.8329 36.2884 23.003 36.503C23.2241 36.5798 23.4599 36.6043 23.6921 36.5746C23.9242 36.545 24.1463 36.4619 24.341 36.332C24.2436 36.5616 24.2182 36.8153 24.2683 37.0597C24.3184 37.304 24.4416 37.5273 24.6215 37.7C24.8754 37.8117 25.1533 37.8577 25.4297 37.8336C25.706 37.8094 25.9718 37.716 26.2025 37.562L26.9765 36.8615C27.6845 37.5665 28.661 38.003 29.7395 38.003L29.831 38.0015C30.1865 37.9713 30.527 37.8449 30.8161 37.6359C31.1052 37.4269 31.3319 37.1431 31.472 36.815C31.691 36.899 31.94 36.956 32.204 36.956C32.558 36.956 32.8865 36.854 33.164 36.6785C34.0415 36.098 33.8315 35.648 33.8315 35.648C34.1435 35.7823 34.4901 35.8142 34.8214 35.739C35.1527 35.6638 35.4516 35.4854 35.675 35.2295C35.9072 34.992 36.0536 34.6838 36.0911 34.3538C36.1286 34.0237 36.055 33.6906 35.882 33.407C35.8916 33.4123 35.9025 33.4149 35.9135 33.4145C36.545 33.4145 37.094 33.0665 37.3805 32.5535C37.522 32.189 37.57 31.7948 37.5199 31.407C37.4699 31.0192 37.3234 30.6501 37.094 30.3335L37.0985 30.341C38.3285 30.101 38.2835 29.486 38.8835 28.586C39.4509 27.8509 40.1579 27.2351 40.964 26.774L36.5 21.5ZM36.425 32.09C35.765 32.75 35.255 32.465 34.13 31.61C33.005 30.755 30.77 29.15 30.77 29.15C30.8615 29.6075 31.073 30.005 31.3715 30.3215C31.85 30.86 33.275 32.09 33.95 32.72C34.37 33.11 35.45 33.89 34.82 34.49C34.19 35.09 33.695 34.49 32.66 33.65C31.625 32.81 29.315 30.74 29.315 30.74C29.3026 30.9384 29.3322 31.1372 29.402 31.3233C29.4718 31.5094 29.5802 31.6787 29.72 31.82C29.975 32.12 31.4 33.5 32 34.13C32.6 34.76 33.125 35.135 32.615 35.63C32.105 36.125 31.07 35.345 30.5 34.76C29.615 33.905 27.86 32.315 27.86 32.315L27.8585 32.3945C27.8585 32.8205 28.0055 33.2105 28.253 33.5195C28.685 34.0865 29.525 34.8215 30.035 35.3915C30.545 35.9615 30.845 36.4415 30.035 36.8915C29.225 37.3415 28.025 36.2315 27.5 35.6915V35.6885C27.5016 35.5401 27.4482 35.3963 27.35 35.285C27.1702 35.1194 26.9489 35.0056 26.7095 34.956C26.4702 34.9063 26.2218 34.9226 25.991 35.003C26.0857 34.9179 26.1617 34.8139 26.2139 34.6978C26.2661 34.5816 26.2936 34.4558 26.2944 34.3285C26.2953 34.2011 26.2695 34.075 26.2188 33.9582C26.1681 33.8413 26.0936 33.7364 26 33.65C25.8031 33.5008 25.5628 33.4202 25.3157 33.4205C25.0687 33.4207 24.8286 33.5019 24.632 33.6515C24.7314 33.5566 24.8081 33.4404 24.8565 33.3118C24.9048 33.1831 24.9236 33.0452 24.9113 32.9083C24.8991 32.7714 24.8562 32.639 24.7857 32.521C24.7153 32.4029 24.6192 32.3023 24.5045 32.2265C24.236 32.0578 23.9209 31.9785 23.6045 32.0001C23.2881 32.0216 22.9867 32.1429 22.7435 32.3465C22.906 32.1495 22.9861 31.8974 22.9671 31.6428C22.9481 31.3881 22.8315 31.1507 22.6415 30.98C22.4049 30.7611 22.1042 30.6243 21.7838 30.5897C21.4633 30.5551 21.1403 30.6246 20.8625 30.788L19.865 29.1035C19.175 28.0085 18.365 26.8685 18.365 26.8685L21.785 22.7135C21.785 22.7135 23 23.4635 24.005 24.0335C24.5 24.3185 25.355 24.6935 26 24.9935C24.98 25.7585 24.125 26.4935 24.38 27.0035C24.8341 27.3305 25.3773 27.5109 25.9368 27.5206C26.4963 27.5302 27.0454 27.3687 27.5105 27.0575C28.1069 26.66 28.8083 26.4495 29.525 26.453C30.0455 26.453 30.5405 26.561 30.989 26.7575C31.82 27.3185 33.35 28.6985 34.745 29.5685C36.5 30.8435 36.845 31.6685 36.425 32.0885V32.09Z" fill="#2A7280"/>
</svg>
