<svg width="58" height="58" viewBox="0 0 58 58" fill="none" xmlns="http://www.w3.org/2000/svg">
<rect width="58" height="58" rx="29" fill="#EFF1F4"/>
<path d="M22 22C21.7348 22 21.4804 22.1054 21.2929 22.2929C21.1054 22.4804 21 22.7348 21 23V32C21 32.2652 21.1054 32.5196 21.2929 32.7071C21.4804 32.8946 21.7348 33 22 33H36C36.2652 33 36.5196 32.8946 36.7071 32.7071C36.8946 32.5196 37 32.2652 37 32V23C37 22.7348 36.8946 22.4804 36.7071 22.2929C36.5196 22.1054 36.2652 22 36 22H22ZM22 20H36C36.7956 20 37.5587 20.3161 38.1213 20.8787C38.6839 21.4413 39 22.2044 39 23V32C39 32.7956 38.6839 33.5587 38.1213 34.1213C37.5587 34.6839 36.7956 35 36 35H22C21.2044 35 20.4413 34.6839 19.8787 34.1213C19.3161 33.5587 19 32.7956 19 32V23C19 22.2044 19.3161 21.4413 19.8787 20.8787C20.4413 20.3161 21.2044 20 22 20ZM26 36H32C32.2652 36 32.5196 36.1054 32.7071 36.2929C32.8946 36.4804 33 36.7348 33 37C33 37.2652 32.8946 37.5196 32.7071 37.7071C32.5196 37.8946 32.2652 38 32 38H26C25.7348 38 25.4804 37.8946 25.2929 37.7071C25.1054 37.5196 25 37.2652 25 37C25 36.7348 25.1054 36.4804 25.2929 36.2929C25.4804 36.1054 25.7348 36 26 36Z" fill="#2A7280"/>
</svg>
