<svg width="64" height="65" viewBox="0 0 64 65" fill="none" xmlns="http://www.w3.org/2000/svg">
<path d="M26.6853 5.9439C24.8759 5.35866 22.9171 5.43714 21.1603 6.16527C19.4035 6.89341 17.9635 8.22357 17.0986 9.91723L14.9493 14.1199C14.6939 14.6202 14.287 15.0271 13.7866 15.2826L9.5813 17.4319C7.88764 18.2968 6.55748 19.7368 5.82935 21.4936C5.10121 23.2504 5.02273 25.2091 5.60797 27.0186L7.06397 31.5119C7.23682 32.0458 7.23682 32.6206 7.06397 33.1546L5.61063 37.6479C5.0254 39.4573 5.10388 41.4161 5.83201 43.1729C6.56015 44.9297 7.89031 46.3696 9.58397 47.2346L13.7866 49.3839C14.287 49.6393 14.6939 50.0462 14.9493 50.5466L17.0986 54.7519C17.9635 56.4455 19.4035 57.7757 21.1603 58.5038C22.9171 59.232 24.8759 59.3105 26.6853 58.7252L31.1786 57.2692C31.7125 57.0964 32.2874 57.0964 32.8213 57.2692L37.3146 58.7226C39.1238 59.308 41.0823 59.2299 42.839 58.5023C44.5958 57.7747 46.0359 56.4451 46.9013 54.7519L49.0506 50.5466C49.306 50.0462 49.713 49.6393 50.2133 49.3839L54.4186 47.2372C56.1129 46.3722 57.4435 44.9318 58.1716 43.1744C58.8998 41.417 58.9779 39.4577 58.392 37.6479L56.936 33.1546C56.7631 32.6206 56.7631 32.0458 56.936 31.5119L58.3893 27.0186C58.9747 25.2094 58.8967 23.2509 58.169 21.4942C57.4414 19.7374 56.1118 18.2972 54.4186 17.4319L50.2133 15.2826C49.713 15.0271 49.306 14.6202 49.0506 14.1199L46.904 9.91456C46.039 8.22031 44.5986 6.88974 42.8412 6.16157C41.0838 5.43339 39.1244 5.35527 37.3146 5.94123L32.8213 7.39723C32.2874 7.57008 31.7125 7.57008 31.1786 7.39723L26.6853 5.9439ZM18.0266 31.6852L21.7973 27.9146L29.3386 35.4586L44.424 20.3732L48.1973 24.1439L29.3386 42.9972L18.0266 31.6852Z" fill="url(#paint0_linear_86_1843)"/>
<defs>
<linearGradient id="paint0_linear_86_1843" x1="13.5" y1="15.5" x2="59" y2="59" gradientUnits="userSpaceOnUse">
<stop stop-color="#2A7280"/>
<stop offset="1" stop-color="#182642"/>
</linearGradient>
</defs>
</svg>
