<svg width="487" height="244" viewBox="0 0 487 244" fill="none" xmlns="http://www.w3.org/2000/svg">
<path d="M369.382 15.2664C372.63 15.9259 375.755 16.2128 376.274 20.8593C376.538 23.2259 379.731 23.468 382.088 23.5319C386.316 23.6472 387.421 24.3306 387.17 28.1002C386.967 31.1445 387.95 32.0452 390.796 32.2959C394.544 32.6256 398.055 33.6941 401.999 32.1777C405.549 30.8137 407.579 32.6142 409.264 36.889C409.621 37.7944 410.133 39.002 411.191 38.3492C416.014 35.3735 421.773 37.6915 426.94 35.0656C430.372 33.3214 435.262 34.1116 438.706 37.4208C440.371 39.0211 442.347 39.7903 444.413 38.3835C446.605 36.8918 448.419 38.2643 449.547 39.4243C453.129 43.1081 457.173 42.013 461.283 41.2295C461.833 41.1247 462.365 40.9264 462.906 40.772C465.138 40.1324 463.046 45.2555 465.548 43.0719C466.874 41.9148 467.801 41.6727 469.3 41.4907C476.131 40.6605 481.169 44.5349 486.407 47.9691L483.901 53.8546C483.72 53.8085 483.538 53.7663 483.355 53.7278C481.869 53.4181 480.513 50.8179 480.065 51.529C479.139 52.9968 477.275 54.2521 477.517 56.3051C477.828 58.9395 476.525 59.5619 474.192 59.6734C472.114 59.7726 469.991 60.1405 468.383 61.7827C467.072 63.1218 465.519 63.1485 463.661 63.077C458.859 62.8921 456.274 65.172 455.674 70.0396C455.057 75.0321 450.395 76.824 447.929 80.3401C447.133 81.4762 446.418 80.0036 445.99 79.2459C444.033 75.7784 445.245 72.5549 446.991 69.5126C447.835 68.0409 449.192 66.8705 450.264 65.5199C450.914 64.7012 452.605 64.175 451.834 62.9017C451.153 61.7751 449.587 61.4691 448.23 61.5044C446.534 61.5492 445.387 62.712 444.605 64.0321C443.243 66.3329 441.638 65.9946 439.278 65.5714C433.126 64.4686 426.756 63.8233 422.471 69.9977C421.336 71.6323 417.826 71.8706 418.896 74.525C419.904 77.0232 423.006 75.3705 425.108 76.0176C426.661 76.4951 428.754 75.9595 428.823 78.0497C428.897 80.3029 431.191 82.8249 428.633 84.8321C427.839 85.4555 427.122 85.8348 427.014 86.8957C426.96 87.4304 426.978 88.2396 426.324 88.2377C425.705 88.2357 425.773 87.437 425.709 86.9233C425.663 86.544 425.695 86.156 425.651 85.7757C425.529 84.7092 425.999 83.5521 425.171 82.5923C424.882 83.6722 424.783 84.8541 424.271 85.8158C421.834 90.407 419.236 94.7437 413.539 96.1257C408.32 97.3915 407.801 98.4599 409.056 103.731C409.514 105.652 409.524 107.289 407.464 107.968C405.472 108.625 404.851 106.775 404.164 105.494C403.634 104.507 403.337 103.346 403.164 102.228C402.911 100.59 402.002 100.442 400.726 100.911C399.733 101.276 398.679 102.514 397.772 101.048C397.147 100.036 396.749 99.3673 395.846 100.636C395.306 101.396 394.454 102.332 394.56 103.071C394.79 104.68 395.983 103.378 396.759 103.453C398.977 103.671 401.067 103.935 398.153 106.549C396.831 107.735 397.226 109.286 397.529 110.834C399.077 118.74 395.689 124.579 388.186 127.26C386.311 127.93 383.969 127.815 383.16 130.458C382.644 132.142 381.874 131.999 381.125 130.313C380.22 128.275 378.864 129.579 377.848 130.291C376.469 131.257 376.446 132.467 377.726 133.627C378.294 134.142 378.902 134.617 379.433 135.167C383.056 138.917 381.781 144.168 376.851 146.127C375.492 146.667 375.283 145.739 374.739 144.967C373.259 142.867 370.704 140.389 368.804 142.108C366.352 144.327 368.945 146.963 370.896 148.83C372.331 150.203 374.021 151.857 373.657 153.641C372.823 157.722 376.438 160.204 376.668 163.82C376.772 165.449 378.342 165.693 379.649 166.056C383.481 167.118 387.05 169.314 391.285 168.654C392.013 168.54 393.084 168.833 393.137 169.617C393.213 170.728 392.059 170.408 391.384 170.469C386.553 170.902 381.607 170.088 377.262 168.7C373.912 167.629 371.077 163.776 368.9 160.56C367.093 157.881 365.11 155.325 362.966 152.907C362.339 152.201 361.167 151.755 361.924 150.686C362.779 149.482 364.027 149.955 364.913 150.736C366.2 151.869 367.323 153.188 368.53 154.413C368.931 154.819 369.504 155.263 369.988 154.854C370.556 154.376 369.948 153.856 369.65 153.44C366.506 149.04 365.327 144.159 365.759 138.781C365.92 136.776 365.592 134.768 362.616 135.411C360.056 135.964 360.124 133.521 359.235 132.263C355.503 126.982 354.117 126.847 349.324 131.127C348.223 132.11 347.016 132.975 345.813 133.829C341.672 136.767 340.581 141.12 342.708 145.952C343.144 146.943 344.211 148.039 343.032 149.041C341.946 149.966 341.03 148.796 339.995 148.443C335.218 146.81 333.418 142.83 332.762 138.547C331.783 132.168 326.981 128.481 323.549 123.807C322.668 122.607 321.353 122.354 319.973 122.33C318.248 122.3 316.51 122.147 314.803 122.314C313.74 122.418 312.729 122.263 311.732 122.045C310.031 121.673 309.023 123.858 310.41 124.909C311.071 125.411 311.789 125.867 312.401 126.41C313.503 127.388 312.368 127.981 312.048 128.81C310.024 134.057 304.975 135.408 300.637 137.401C297.925 138.647 295.356 140.53 292.183 140.717C291.594 140.751 291.008 141.061 291.008 141.734C291.008 142.642 291.727 143.081 292.491 143.149C294.435 143.325 296.146 142.265 298.005 141.968C300.594 141.556 301.842 143.312 300.688 145.665C298.411 150.31 295.483 154.594 291.289 157.86C284.867 162.861 284.255 164.903 286.664 172.394C288.551 178.264 288.33 179.15 283.211 183.033C281.258 184.515 279.584 185.873 280.555 188.678C280.939 189.787 281.034 191.304 280.115 191.938C276.442 194.474 275.241 198.693 272.935 202.124C269.228 207.64 263.548 207.375 258.082 207.79C256.37 207.921 255.078 206.222 254.905 204.895C254.279 200.117 251.91 195.767 250.268 191.554C247.741 185.07 245.845 179.479 248.377 172.643C249.103 170.68 248.146 167.439 246.855 165.532C244.691 162.338 243.663 159.121 243.763 155.363C243.794 154.166 243.143 152.676 241.936 152.851C238.646 153.329 235.978 150.299 233.221 150.919C230.128 151.616 226.742 151.007 223.9 152.775C221.99 153.962 220.301 153.485 218.563 152.342C214.198 149.473 211.724 144.78 207.916 141.375C207.516 141.018 207.275 140.316 207.37 139.789C208.68 132.538 206.175 124.199 213.018 118.51C216.344 115.744 217.658 111.505 220.858 108.671C222.202 107.48 222.264 105.869 220.221 105.072C218.859 104.54 217.439 103.775 217.882 102.304C218.621 99.8534 217.199 97.2704 218.441 95.0277C219.556 93.0157 221.722 93.3807 223.618 93.4818C229.271 93.7829 229.788 93.3493 228.783 87.5848C228.358 85.1429 228.94 84.0039 231.026 82.4941C233.446 80.7423 235.758 78.7055 238.218 76.9679C242.176 74.1714 242.623 73.0849 239.797 68.8377C238.912 67.5091 238.338 66.209 237.99 64.7126C237.019 60.5436 237.673 58.7499 241.609 56.9008C244.355 55.6112 246.413 53.9232 247.621 51.1029C249.719 46.2029 253.76 43.4255 258.544 41.5841C260.507 40.8282 262.558 40.3012 264.535 39.5758C268.057 38.2834 271.065 37.6858 274.258 41.0646C276.359 43.2882 280.369 42.9461 283.151 44.7494C284.097 45.3632 285.567 45.469 286.159 46.2753C288.475 49.4273 290.172 51.0591 291.487 45.6063C291.79 44.3548 293.79 43.9373 294.869 45.2221C296.509 47.1751 297.985 46.7176 299.845 45.6434C302.966 43.842 306.586 44.7551 309.947 44.1003C313.513 43.4055 311.173 41.8681 310.714 40.5423L310.778 40.4632C313.584 41.0379 316.376 41.6927 319.2 42.154C320.695 42.398 321.748 42.4342 322.212 40.0943C323.22 35.0151 325.501 34.0572 331.077 34.5824C333.073 34.7702 335.002 34.4261 337.024 35.3192C338.191 35.8348 340.285 35.608 340.61 33.534C341.061 30.6412 342.54 31.0139 344.718 31.6525C346.733 32.2425 349.483 33.2518 349.455 29.1848C349.447 28.1193 350.764 27.9248 351.69 27.7228C355.755 26.8363 359.546 24.9701 363.929 25.1655C367.953 25.3447 369.038 22.6731 366.876 18.8368C368.061 17.897 368.744 16.5979 369.382 15.2664ZM240.427 94.4778C236.184 95.2269 233.306 97.7861 231.578 101.474C230.733 103.276 229.998 104.893 228.13 105.78C227.508 106.075 226.246 105.906 226.399 106.718C226.518 107.351 227.791 107.218 228.474 106.98C231.893 105.788 235.297 104.671 238.963 104.353C240.965 104.179 242.763 104.467 244.508 105.265C246.224 106.051 246.003 107.673 246.098 109.213C246.172 110.41 247.109 111.408 248.307 111.47C252.146 111.667 255.804 114.922 259.871 112.086C260.499 111.648 261.862 111.739 262.627 112.113C266.857 114.19 271.381 112.749 275.728 113.347C277.858 113.639 278.615 111.555 279.022 110.009C279.521 108.118 277.986 108.08 276.514 107.978C275.239 107.889 273.916 106.822 272.757 107.02C268.765 107.702 267.007 106.045 266.755 102.213C266.704 101.439 266.234 100.702 265.273 100.834C264.626 100.924 264.682 101.634 264.437 102.105C263.023 104.825 259.364 105.292 257.614 102.978C257.083 102.276 257.037 100.415 256.266 100.802C252.292 102.796 250.535 99.1062 247.887 97.8252C246.148 96.9835 245.067 96.6747 244.893 99.1986C244.801 100.542 244.05 102.237 242.535 101.791C240.359 101.151 242.29 99.6418 242.383 98.5028C242.527 96.7958 243.763 94.5235 240.427 94.4778ZM255.589 73.5681C258.238 73.7063 258.018 73.5672 259.095 71.8715C261.621 67.8884 260.62 63.9511 259.3 59.9842C258.93 58.868 259.077 56.8064 257.032 57.5356C255.475 58.0913 254.5 59.9041 255.509 61.2756C258.92 65.9155 254.432 68.1553 252.596 70.9613C251.449 72.716 249.142 74.4955 247.194 71.1815C246.909 70.6963 246.252 70.3036 245.791 70.7611C245.46 71.089 245.329 71.8353 245.421 72.3376C246.029 75.6297 248.623 74.9282 250.84 74.9339C252.549 74.9387 253.633 72.7351 255.589 73.5681ZM287.104 96.73C286.296 93.5799 281.828 93.8525 281.167 90.2383C281.016 89.4138 279.89 91.504 279.088 92.1102C277.819 93.07 276.537 93.3569 275.75 91.7785C275.107 90.487 274.415 89.7112 273.296 90.8902C272.017 92.2379 270.503 93.6295 270.748 95.8055C270.905 97.1885 271.968 97.9777 273.137 97.7232C276.805 96.9245 280.202 97.4372 283.664 98.8002C285.115 99.3702 286.704 98.6858 287.104 96.73ZM283.489 126.631C282.289 126.89 282.242 127.762 282.179 128.716C281.994 131.497 283.994 133.115 285.465 135.008C286.132 135.867 286.817 137.403 287.92 136.933C289.512 136.254 288.509 134.691 288.208 133.511C287.637 131.269 285.984 129.63 284.826 127.716C284.561 127.276 283.987 127.022 283.489 126.631ZM-3.44922 77.4626C1.34404 74.5231 6.19735 71.7124 11.5625 69.9014C12.2468 69.6708 13.198 69.2466 13.1237 68.4193C13.0379 67.4614 11.8818 67.8779 11.2756 67.5215C8.80605 66.0689 6.24596 64.7431 3.90509 63.1047C1.01331 61.0802 1.1477 59.4047 4.12526 57.5909C4.76767 57.1991 5.52349 56.9961 6.22309 56.6949C7.02466 56.3489 8.65641 56.5872 8.33616 55.4044C8.05499 54.3655 6.66057 55.3472 5.76368 55.2967C5.00976 55.2548 4.1996 55.2976 3.52003 55.0317C2.20948 54.5189 1.05334 53.542 1.28781 52.0513C1.58614 50.1536 3.27126 50.0068 4.85059 49.9887C5.55399 49.9802 6.5624 50.8046 6.87502 49.9239C7.16573 49.1061 5.96098 48.9755 5.35384 48.5819C0.817919 45.6367 0.835074 44.9162 5.40435 42.2636C6.56049 41.5926 7.64324 40.7682 8.85657 40.2316C12.3059 38.7066 15.5475 37.783 19.6183 39.2146C24.0303 40.7663 28.9923 40.6757 33.6464 41.6355C39.4204 42.826 44.9028 42.8536 50.7912 41.3572C56.447 39.9199 62.5098 40.9893 68.1828 42.9842C68.8643 43.2234 69.7383 43.8258 70.2683 43.0347C70.7477 42.3189 70.1625 41.5421 69.521 41.1104C68.5631 40.467 67.6872 39.9266 67.4442 38.5922C67.1687 37.0806 66.2747 36.7431 65.109 37.9965C63.727 39.4824 62.0638 39.4557 60.3672 38.7171C58.6306 37.9612 57.3029 36.8518 58.5048 34.7568C59.1777 33.5835 59.9145 32.5122 59.8335 31.0644C59.7191 29.0333 61.4948 28.5863 62.507 29.2363C65.7638 31.3256 69.847 30.1675 73.1553 32.7238C75.8755 34.8264 79.6318 35.4431 83.2203 33.2557C85.2914 31.9937 87.4769 31.7144 87.0242 35.4383C86.8488 36.8842 87.334 38.4626 88.4053 39.0297C91.3466 40.5861 93.8143 41.7861 89.6272 44.8314C88.7494 45.47 89.4022 46.6728 90.4945 46.9826C91.7965 47.3514 93.6637 47.6078 93.8133 45.9475C93.9887 44.0021 94.6635 42.9461 96.1818 41.8242C98.659 39.9942 98.2425 38.8772 95.0609 38.8438C92.4761 38.8162 91.5906 36.1379 89.6453 35.0714C91.9109 34.6634 92.8011 31.9461 95.2439 31.7783C96.5736 31.6868 97.8908 31.399 99.2108 31.1816C101.094 30.8719 102.384 29.934 102.661 27.9115C102.802 26.8859 102.728 25.9404 101.516 25.6993C99.7884 25.3561 98.2692 24.3287 96.7099 26.8306C94.5081 30.362 90.1457 27.4063 87.0966 29.0238L86.3065 26.9317C86.784 26.4246 86.8374 25.9185 86.3046 25.4124C86.6963 23.3784 85.2199 21.5446 86.2064 19.2638C87.861 15.4379 88.2766 15.0471 91.6125 17.1612C92.6076 17.7921 93.881 18.5032 93.4921 19.7279C92.9707 21.3654 91.5839 19.9777 90.5927 20.0444C89.3622 20.1273 88.1775 20.2379 88.1641 21.7819C88.1508 23.3012 89.2726 23.5709 90.5422 23.5633C91.8794 23.5557 93.2205 23.6872 94.5529 23.6157C97.011 23.4842 98.4474 22.6502 96.4716 20.1044C95.6119 18.9959 94.5081 17.7721 95.9254 16.6532C97.4009 15.4875 98.4245 17.1812 99.1394 18.0828C99.8533 18.9835 102.357 18.9826 100.875 21.4579C100.426 22.208 102.802 22.7198 104.016 23.0191C104.596 23.1621 105.167 22.8075 105.312 22.1603C105.605 20.846 104.979 19.97 103.856 19.3743C103.679 19.2842 103.508 19.1804 103.346 19.0636C96.2552 13.8519 96.34 12.2173 103.955 7.73571C105.272 6.95851 106.699 6.38522 108.188 6.03533C115.983 4.17674 123.971 3.64013 131.882 2.71465C135.188 2.32768 138.691 3.45999 142.082 4.03663C143.371 4.25585 145.623 4.78769 145.655 5.28999C145.747 6.75018 143.719 6.6968 142.812 7.62896C142.298 8.15889 141.338 8.53633 141.85 9.42655C142.434 10.4416 143.727 10.4902 144.286 9.74109C147.613 5.28332 152.254 6.41086 156.819 6.12683C160.533 5.89617 164.284 5.40722 168.102 4.09381C172.305 2.64697 177.318 2.2276 182.041 1.84921C182.988 1.77391 184.205 2.31147 184.866 1.89019C190.579 -1.74312 195.356 3.66396 200.69 3.40662C201.326 3.37612 201.816 3.91367 201.612 4.55131C201.459 5.02787 200.965 5.71222 200.578 5.74368C197.913 5.96194 195.234 6.01913 192.562 6.16305C192.011 6.1926 191.468 6.37369 190.92 6.48521C191.245 7.42023 192.076 7.10093 192.679 7.09998C198.387 7.08664 204.085 7.89298 209.811 7.20673C211.202 7.03993 213.218 6.84168 213.491 8.93379C213.707 10.5798 211.957 10.8915 210.819 11.5158C206.728 13.7614 202.166 15.7362 205.3 21.8648C205.692 22.6302 204.675 23.3374 204.692 23.9322C204.847 29.2173 200.227 33.3481 201.213 38.8581C201.491 40.4079 200.517 42.0244 198.942 42.5105C195.5 43.5723 192.823 46.6061 188.892 46.3611C188.521 46.3383 188.06 46.364 187.772 46.5613C182.145 50.41 174.652 52.2362 172.767 60.1748C172.051 63.1895 170.286 63.566 167.594 62.7959C163.328 61.5759 161.219 58.3305 159.077 54.8268C156.857 51.1963 155.894 47.91 159.294 44.5006C159.825 43.9688 159.788 43.3016 159.045 42.6068C157.35 41.0208 154.353 35.8243 153.903 34.0963C152.524 28.795 147.245 24.4669 142.016 25.8642C136.237 27.4082 134.157 23.5614 131.255 20.5171C130.075 19.28 131.109 18.4145 132.176 17.8817C133.702 17.1183 135.499 17.123 136.977 16.0679C138.176 15.213 138.257 14.4829 137.646 13.2248C137.001 11.8971 136.212 12.3641 135.339 12.7139C130.145 14.7936 125.536 17.3413 123.831 23.3832C123.26 25.4086 121.661 27.0613 121.137 29.3812C120.686 31.377 117.952 30.9224 116.109 31.2217C115.437 31.3313 114.273 30.6956 114.214 31.6258C114.17 32.3159 115.566 31.9861 116.165 32.3302C120.307 34.7073 125.445 33.2604 129.579 36.2542C132.871 38.638 136.751 39.8875 138.353 44.3691C139.134 46.5565 142.164 47.3476 144.446 48.3065C145.513 48.7544 147.06 49.1004 145.895 50.4796C144.983 51.5595 144.55 54.1491 142.11 52.8624C141.288 52.4287 140.677 51.6043 139.951 50.979C139.53 50.6159 138.959 50.1307 138.491 50.5406C137.974 50.9924 138.478 51.5547 138.837 51.9636C139.342 52.5393 139.96 53.0263 140.408 53.6392C141.226 54.7582 143.368 55.8047 141.692 57.3459C140.427 58.5097 138.834 60.3826 136.692 59.378C132.473 57.4002 128.693 54.2149 123.524 55.1337C123.034 55.2204 122.553 54.5714 122.544 53.9471C122.534 53.2484 123.031 52.9625 123.654 52.9129C124.606 52.8367 125.613 52.9758 126.504 52.7108C128.947 51.9827 130.449 48.9622 129.578 46.7853C128.567 44.2566 122.44 41.3162 119.54 41.6489C117.484 41.8853 118.826 42.6945 118.687 43.5685C118.295 46.0313 120.258 49.9344 115.016 50.145C113.154 50.2203 114.628 51.7539 115.378 52.4487C116.741 53.7116 119.929 53.9108 119.555 55.7504C119.2 57.5041 116.092 54.9545 114.516 56.7407C113.86 57.4841 112.638 57.5613 111.854 56.9218C108.779 54.4131 106.923 57.0171 104.959 58.5726C99.1184 63.201 99.3595 65.7591 106.14 69.0265C107.674 69.7651 109.087 70.8765 110.728 71.2758C115.004 72.3176 118.647 73.9112 119.721 78.8027C119.911 79.6643 120.974 81.2255 122.26 80.0189C122.967 79.3545 122.972 78.247 122.426 77.4454C120.751 74.9864 121.068 73.3546 123.941 72.0974C125.223 71.537 124.833 70.0606 124.296 69.036C123.342 67.2155 123.708 65.295 123.62 63.4049C123.397 58.5583 126.119 56.7845 130.484 59.0873C132.143 59.9632 134.052 60.9907 134.982 62.4861C136.541 64.9957 137.767 66.2967 140.784 64.4257C142.746 63.2095 144.141 65.0767 144.775 66.596C146.162 69.9195 148.698 72.0603 151.279 74.3544C153.244 76.1015 156.354 77.6703 154.503 81.4095C153.905 82.6171 155.256 82.8839 155.997 83.3834C157.284 84.2517 158.488 85.2134 158.773 86.8699C158.905 87.6315 158.412 88.9744 158.319 88.902C156.212 87.2712 153.697 88.8238 151.625 87.9927C150.228 87.4323 150.15 85.9511 150.673 84.5062C151.476 82.2863 150.313 82.3435 148.658 82.7534C147.558 83.026 146.346 83.2004 145.241 83.0336C141.259 82.4341 141.483 83.7875 142.693 86.9633C143.768 89.7817 144.867 89.5616 146.871 88.4302C147.808 87.9012 148.794 88.0203 149.233 89.1193C149.649 90.163 148.999 91.3839 148.203 91.5126C145.217 91.9968 142.779 95.5948 139.232 93.0652C138.164 92.3046 136.37 92.8822 136.187 93.7315C135.463 97.1017 132.623 97.9891 130.28 99.536C129.838 99.8277 129.514 100.425 129.321 100.95C127.597 105.599 125.133 109.578 121.048 112.703C118.972 114.291 118.838 117.053 120.968 119.335C122.013 120.455 122.309 122.001 120.9 122.808C119.505 123.605 119.308 121.603 118.471 120.983C117.578 120.323 116.823 119.364 116.257 118.391C114.588 115.524 112.025 115.215 109.295 116.09C107.624 116.626 106.01 117.031 104.269 117.032C100.842 117.034 97.7821 116.864 98.577 122.228C98.8734 124.229 96.0122 126.476 98.6294 129.031C100.536 130.89 102.258 131.773 104.663 130.271C105.474 129.765 106.233 129.172 107.053 128.681C108.248 127.965 109.735 127.416 110.875 128.122C112.624 129.207 110.911 130.571 110.449 131.511C108.962 134.543 109.255 136.114 113.061 136.083C115.091 136.066 116.224 137.424 116.271 139.42C116.315 141.29 115.522 143.641 117.913 144.363C120.407 145.116 123.574 145.372 125.52 143.816C129.71 140.468 133.838 141.177 138.342 142.589C139.554 142.968 140.812 143.147 142.079 143.23C149.385 143.712 153.406 150.613 160.115 152.243C162.402 160.16 170.577 158.936 175.84 162.223C177.204 163.075 178.956 163.513 180.431 164.423C183.276 166.18 184.061 168.437 181.902 171.085C179.743 173.734 179.185 176.836 178.266 179.973C176.755 185.129 175.825 191.084 168.413 191.553C166.416 191.679 165.378 193.559 164.787 195.565C162.415 203.617 161.559 204.467 152.859 207.827C152.185 208.088 151.989 208.355 152.21 208.975C153.577 212.801 150.957 213.842 148.184 214.102C145.593 214.345 145.46 216.5 144.432 217.903C142.583 220.426 142.152 223.862 139.396 225.865C139.224 225.99 139.416 227.099 139.745 227.351C141.528 228.719 140.738 229.6 139.604 231.024C135.845 235.752 135.913 236.011 139.289 240.929C139.828 241.715 140.871 242.3 139.177 242.87C134.598 244.41 130.3 242.281 128.565 237.722C127.212 234.167 127.132 230.282 128.077 226.958C130.051 220.018 129.763 212.805 131.441 205.768C132.725 200.38 133.761 194.385 133.846 188.52C133.901 184.849 132.437 182.023 129.53 180.305C126.312 178.402 124.509 175.73 123.296 172.4C122.974 171.515 122.396 170.726 121.989 169.868C120.914 167.604 116.646 166.856 119.096 162.848C120.421 160.681 119.838 157.527 122.279 155.735C123.851 154.582 123.931 152.904 124.022 151.121C124.119 149.216 123.659 148.43 121.564 148.226C117.773 147.859 113.799 147.45 112.865 142.497C112.662 141.421 111.374 141.303 110.521 141.13C106.117 140.235 102.644 137.312 97.5543 137.126C93.2586 136.97 87.4693 134.79 85.2895 129.069C84.3269 126.542 83.2498 124.705 79.2667 125.512C76.0089 126.171 73.8949 122.074 72.7893 119.105C71.0651 114.477 68.607 110.924 64.6258 107.738C60.3224 104.294 59.1405 98.6363 59.2492 93.1377C59.3235 89.3805 59.6085 85.8243 55.5673 83.7799C54.7066 83.3443 54.354 82.6438 54.2348 81.5191C53.7611 77.0584 53.3951 76.8087 48.6581 76.4322C47.134 76.3112 47.1941 75.0169 46.6336 74.0733C43.1881 68.2764 38.8123 63.9844 31.5009 63.1943C28.8512 62.9074 27.2242 64.2742 25.1092 64.6831C22.8646 65.1167 20.193 64.0702 21.6685 68.242C22.104 69.4754 20.1721 71.3426 18.5918 70.8317C15.7029 69.8967 14.3265 71.4445 12.8454 73.2803C12.4927 73.7177 12.0429 74.3916 11.6168 74.4078C6.38226 74.607 2.05507 78.0783 -3.11372 78.4567L-3.44922 77.4626ZM105.368 34.671C104.429 34.8293 103.491 35.0142 102.84 35.7948C102.098 36.685 102.377 37.6191 102.998 38.3644C105.007 40.7768 106.5 43.7658 110.055 44.4844C110.745 44.6236 109.875 46.7233 111.363 46.3564C112.089 46.1781 112.838 45.1011 113.101 44.2785C113.44 43.2177 112.475 42.4781 111.575 42.256C108.491 41.4954 107.403 39.3118 107.072 36.4562C106.959 35.4812 106.661 34.5738 105.368 34.671Z" fill="white"/>
<path d="M425.668 176.529C425.618 173.717 425.724 171.31 422.704 170.581C422.336 170.492 421.664 170.292 421.675 170.206C422.344 164.391 417.219 165.329 414.244 163.753C413.587 163.405 413.034 162.812 412.516 162.254C411.591 161.256 410.515 160.031 411.583 158.748C412.835 157.244 414.835 157.745 415.505 159.097C416.907 161.928 418.646 161.088 421.052 160.875C426.379 160.403 430.651 163.256 433.555 167.459C434.682 169.092 437.849 170.921 436.868 172.004C435.304 173.729 433.292 171.092 431.515 170.197C430.085 169.476 428.84 169.834 427.896 170.929C426.843 172.15 427.542 173.361 428.14 174.631C431.049 180.821 435.328 186.077 439.414 191.467C443.217 196.485 443.431 199.255 440.381 204.723C439.818 205.732 439.24 206.736 438.761 207.787C435.079 215.867 428.976 216.863 422.717 210.934C419.755 208.129 416.188 205.932 412.758 203.667C410.62 202.255 408.427 202.933 406.269 204.134C402.758 206.087 399.08 207.475 394.97 207.882C390.478 208.326 390.426 208.581 389.794 204.035C389.251 200.127 386.913 196.715 387.455 192.407C387.887 188.967 389.182 187.259 392.362 186.356C394.991 185.61 397.455 185.131 398.728 181.561C399.435 179.581 403.16 177.595 406.26 177.741C408.065 177.825 409.076 177.546 409.98 176.01C411.397 173.599 413.834 173.868 416.143 174.041C417.645 174.154 418.905 174.84 418.535 176.543C417.701 180.384 420.172 181.665 422.994 181.511C426.236 181.333 425.362 178.195 425.668 176.529ZM251.301 13.4532C249.455 13.9088 246.941 11.9377 245.769 14.7694C244.565 17.6774 247.915 18.4361 248.728 20.4253C249.182 21.5328 250.157 22.1571 251.058 22.8729C252.682 24.1634 254.403 24.3617 255.453 22.5126C257.069 19.6628 258.824 19.6132 261.185 21.4499C261.797 21.9255 262.652 21.8226 263.299 21.2879C263.782 20.8885 264.047 20.1555 263.565 19.7953C258.482 16.0018 263.029 16.6452 265.213 16.0514C266.097 15.8103 266.903 15.2126 267.688 14.6922C268.13 14.3996 268.747 13.9459 268.767 13.5409C268.797 12.9328 268.039 12.847 267.509 12.8117C264.848 12.6363 262.35 11.3372 259.335 11.7699C256.61 11.1981 254.056 12.7726 251.301 13.4532ZM82.3463 23.543C81.4551 22.546 80.0807 22.3096 79.5326 23.6526C77.3957 28.8871 74.7937 24.9202 73.1715 23.6783C68.8452 20.3681 66.9828 20.1899 63.3105 23.745C61.7187 25.2862 61.6187 26.2527 64.0015 26.7293C67.1773 27.364 70.1625 28.2771 73.0352 29.9851C76.515 32.0544 83.5186 30.1443 86.3055 26.9313C86.7831 26.4242 86.8364 25.9181 86.3036 25.412C84.6233 25.5512 83.4309 24.7563 82.3463 23.543ZM380.944 156.225C380.738 156.371 380.702 156.965 380.795 157.293C381.532 159.888 382.314 162.491 385.41 163.239C388.088 163.886 390.047 163.16 391.75 160.743C393.882 157.716 392.912 154.123 394.132 150.948C394.583 149.776 393.08 149.154 391.103 149.141C388.03 151.27 384.469 153.722 380.944 156.225ZM298.896 175.43C296.511 177.107 293.203 178.418 291.977 180.969C290.566 183.907 290.057 187.462 290.261 190.902C290.332 192.11 290.969 193.074 292.278 193.307C293.862 193.589 295.743 193.485 296.196 191.861C297.451 187.362 299.884 183.235 300.503 178.83C299.97 177.334 300.469 174.325 298.896 175.43ZM310.781 40.4724C306.836 36.0918 306.84 35.1682 311.315 31.4539C313.956 29.2627 316.836 27.4393 320.269 26.6292C321.735 26.2832 323.167 25.7247 324.541 25.1013C324.907 24.9355 325.203 24.1644 325.18 23.6897C325.133 22.7909 324.387 22.3249 323.575 22.5241C316.181 24.3321 308.783 26.1498 303.994 32.8969C302.079 35.5943 302.737 38.527 305.667 39.9863C307.273 40.7859 309.015 40.5305 310.717 40.5505L310.781 40.4724ZM466.471 225.24C467.85 221.913 470.361 219.828 473.154 217.754C476.543 215.236 476.3 213.418 472.803 210.647C472.065 210.062 471.324 209.102 470.368 209.539C469.214 210.066 469.949 211.17 470.101 212.048C470.541 214.585 470.2 216.32 467.414 217.793C465.048 219.044 463.365 221.708 461.588 223.915C460.189 225.653 460.945 227.493 463.121 227.619C464.615 227.639 465.9 226.618 466.471 225.24ZM425.629 98.8808C424.861 98.4386 424.054 98.5939 423.652 99.3174C421.215 103.707 417.148 105.852 412.721 107.659C410.911 108.398 409.65 109.921 409.744 112.115C409.78 112.963 410.252 113.711 411.139 113.317C415.186 111.519 419.362 109.904 423.132 107.629C425.402 106.26 426.169 103.378 426.695 101.142C426.756 99.8759 426.324 99.2802 425.629 98.8808ZM363.935 10.3631C361.191 8.57221 359.5 10.2774 358.474 12.3981C357.407 14.6036 358.185 16.5499 360.772 17.2914C362.791 17.8699 364.842 18.3332 366.879 18.8479C368.062 17.8976 368.744 16.5985 369.382 15.267C368.123 13.0128 366.008 11.7156 363.935 10.3631ZM420.173 26.5863C419.043 28.5678 421.456 28.87 422.31 29.9184C422.668 30.3588 423.071 30.7686 423.377 31.2423C424.236 32.5719 425.269 33.9654 426.982 33.4049C429.1 32.712 426.481 31.1394 427.308 30.0623C427.762 29.4695 428.147 28.8175 428.63 28.2504C429.773 26.9075 429.017 26.1726 427.76 25.8266C426.679 25.5293 425.517 25.5255 424.764 25.4368C422.895 25.5969 421.001 25.1328 420.173 26.5863ZM398.652 142.717C400.506 144.318 402.19 143.045 403.128 141.913C404.142 140.688 403.023 139.266 401.539 138.971C398.853 138.438 398.691 137.125 399.623 134.877C400.019 133.923 398.889 133.104 397.984 132.859C396.775 132.531 396.343 133.622 396.042 134.502C395.799 135.209 395.827 136.01 395.735 136.769C395.547 139.331 396.821 141.135 398.652 142.717ZM394.139 161.195C394.279 162.896 394.521 165.33 396.368 165.753C397.365 165.982 399.915 165.082 399.747 162.84C399.625 161.199 399.238 159.383 396.941 159.142C395.573 159.209 394.014 159.675 394.139 161.195Z" fill="white"/>
<path d="M163.142 65.8667C137.108 40.2583 94.9 40.2583 68.8667 65.8667C62.6857 71.9053 57.7743 79.1186 54.421 87.0826C51.0677 95.0465 49.3403 103.601 49.3403 112.242C49.3403 120.883 51.0677 129.437 54.421 137.401C57.7743 145.365 62.6857 152.578 68.8667 158.617L116 204.992L163.142 158.617C169.323 152.578 174.234 145.365 177.587 137.401C180.941 129.437 182.668 120.883 182.668 112.242C182.668 103.601 180.941 95.0465 177.587 87.0826C174.234 79.1186 169.323 71.9053 163.142 65.8667ZM116 134.158C110.433 134.158 105.208 131.992 101.267 128.058C97.3646 124.148 95.1732 118.849 95.1732 113.325C95.1732 107.801 97.3646 102.502 101.267 98.5917C105.2 94.6583 110.433 92.4916 116 92.4916C121.567 92.4916 126.8 94.6583 130.733 98.5917C134.635 102.502 136.827 107.801 136.827 113.325C136.827 118.849 134.635 124.148 130.733 128.058C126.8 131.992 121.567 134.158 116 134.158Z" fill="url(#paint0_linear_0_1)"/>
<path d="M69.5679 66.5793C95.2121 41.3539 136.797 41.3538 162.441 66.5793L162.443 66.5823C168.528 72.5277 173.364 79.6299 176.666 87.4709C179.967 95.312 181.668 103.734 181.668 112.241C181.668 120.749 179.967 129.172 176.666 137.013C173.364 144.854 168.528 151.956 162.443 157.902L162.44 157.904L116 203.588L69.5679 157.904L69.5659 157.902L68.9985 157.341C63.179 151.512 58.5407 144.609 55.3423 137.013C52.0407 129.172 50.3403 120.749 50.3403 112.241C50.3404 103.734 52.0409 95.3119 55.3423 87.4709C58.6438 79.6298 63.4803 72.5278 69.5659 66.5823L69.5679 66.5793ZM116 91.4915C110.169 91.4915 104.681 93.764 100.56 97.885H100.559C96.4699 101.983 94.1733 107.536 94.1733 113.325C94.1735 119.114 96.47 124.667 100.559 128.765L100.56 128.766C104.689 132.886 110.168 135.158 116 135.158C121.832 135.158 127.32 132.887 131.441 128.766V128.765C135.53 124.667 137.827 119.114 137.827 113.325C137.827 107.536 135.53 101.983 131.441 97.885L131.05 97.5032C126.976 93.6235 121.65 91.4916 116 91.4915Z" stroke="url(#paint1_linear_0_1)" stroke-opacity="0.32" stroke-width="2"/>
<defs>
<linearGradient id="paint0_linear_0_1" x1="62.5" y1="29" x2="152" y2="205" gradientUnits="userSpaceOnUse">
<stop stop-color="#2A7280"/>
<stop offset="0.82708" stop-color="#182642"/>
</linearGradient>
<linearGradient id="paint1_linear_0_1" x1="116.004" y1="46.6604" x2="116.004" y2="204.992" gradientUnits="userSpaceOnUse">
<stop stop-color="#192845"/>
<stop offset="1" stop-color="#182642" stop-opacity="0"/>
</linearGradient>
</defs>
</svg>
